<?xml version="1.0" standalone="no"?>
<!DOCTYPE svg PUBLIC "-//W3C//DTD SVG 20010904//EN"
 "http://www.w3.org/TR/2001/REC-SVG-20010904/DTD/svg10.dtd">
<svg version="1.0" xmlns="http://www.w3.org/2000/svg"
 width="800.000000pt" height="426.000000pt" viewBox="0 0 800.000000 426.000000"
 preserveAspectRatio="xMidYMid meet">
<metadata>
Created by potrace 1.15, written by Peter Selinger 2001-2017
</metadata>
<g transform="translate(0.000000,426.000000) scale(0.100000,-0.100000)"
fill="#000000" stroke="none">
<path d="M3050 2983 c-144 -10 -297 -28 -465 -54 -211 -33 -232 -37 -460 -104
-332 -96 -510 -136 -645 -144 -106 -7 -134 -12 -169 -32 -46 -25 -47 -21 13
-65 11 -7 18 -15 15 -17 -2 -2 -26 -16 -52 -31 -55 -32 -98 -92 -124 -173
l-17 -53 -57 0 c-95 0 -89 31 -89 -459 0 -333 3 -431 13 -439 7 -6 40 -12 73
-14 94 -4 94 -4 94 178 l0 154 79 0 c113 0 129 -14 213 -175 37 -71 74 -136
83 -144 10 -10 38 -16 86 -18 81 -2 99 2 99 27 0 32 -140 299 -174 332 l-33
32 57 27 c31 14 66 39 78 54 26 33 52 115 52 165 0 76 -55 191 -109 227 -62
42 -84 46 -253 51 -93 2 -168 6 -168 9 0 2 7 17 15 33 13 25 22 29 72 35 93
11 177 34 332 92 127 48 160 56 251 63 146 12 384 12 559 0 80 -6 237 -17 349
-25 111 -8 221 -15 245 -14 l42 1 -40 9 c-22 4 -157 26 -300 49 -143 22 -270
45 -282 50 -34 14 -58 57 -43 75 32 39 182 75 427 105 317 37 509 44 833 30
l295 -13 150 -155 c83 -85 151 -157 153 -162 4 -11 -198 -20 -473 -20 -155 0
-244 -4 -234 -10 24 -14 313 -30 544 -30 194 0 774 22 925 35 120 10 772 35
920 35 183 0 401 -16 505 -36 96 -19 144 -43 250 -123 90 -68 164 -107 221
-116 22 -3 48 -8 60 -10 31 -7 108 -90 137 -149 32 -65 47 -146 47 -255 1 -86
1 -86 20 -63 26 31 43 121 38 206 -5 109 -47 188 -156 296 -48 48 -107 100
-132 115 -122 77 -268 134 -440 171 -155 33 -622 35 -1180 4 -365 -20 -615
-30 -726 -30 l-110 0 -72 48 c-104 68 -275 223 -261 236 13 13 226 -36 419
-95 69 -21 199 -61 290 -89 91 -27 170 -48 175 -46 11 4 -117 65 -215 103
-141 53 -657 214 -765 238 -62 14 -198 39 -302 55 -172 27 -207 30 -413 28
-124 -1 -245 -3 -270 -5z m599 -63 c151 -11 275 -21 277 -23 1 -1 5 -17 9 -36
l7 -34 -98 7 c-551 36 -1166 -4 -1441 -95 -85 -28 -92 -39 -59 -89 38 -58 35
-63 -31 -57 -172 18 -510 27 -620 17 -267 -24 -267 -24 -281 -7 -16 19 -11 20
173 36 123 11 241 38 515 116 598 171 951 209 1549 165z m-2148 -828 c23 -26
29 -42 29 -78 0 -87 -62 -116 -237 -112 l-108 3 -3 113 -3 114 146 -4 147 -3
29 -33z"/>
<path d="M2132 2299 c-59 -11 -163 -59 -155 -72 4 -6 1 -7 -6 -2 -17 10 -155
-130 -147 -150 3 -8 -1 -18 -9 -22 -28 -16 -58 -106 -63 -190 -5 -84 4 -177
16 -169 4 2 8 -9 8 -26 1 -17 7 -34 15 -39 8 -5 10 -9 5 -9 -5 0 -3 -7 4 -15
7 -8 17 -12 24 -8 7 4 6 1 -1 -9 -11 -12 -8 -22 15 -54 94 -129 242 -204 399
-204 79 0 163 16 163 32 0 5 4 7 9 3 14 -8 81 27 74 38 -3 6 -1 7 4 4 14 -9
81 41 125 92 38 45 104 169 94 178 -3 4 0 13 7 21 17 21 16 217 -2 257 -8 17
-16 39 -18 50 -7 39 -68 128 -121 176 -117 107 -277 150 -440 118z m218 -111
c19 -6 54 -21 76 -34 23 -13 45 -20 49 -16 3 4 5 2 4 -3 -2 -6 16 -30 39 -55
63 -67 94 -140 100 -232 6 -96 -11 -165 -54 -230 -19 -27 -31 -55 -27 -61 3
-5 1 -7 -4 -4 -13 8 -36 -17 -25 -28 4 -5 2 -5 -4 -2 -6 3 -30 -7 -55 -24 -82
-54 -184 -76 -269 -58 -30 6 -65 12 -77 13 -11 0 -19 4 -17 8 2 4 -5 9 -16 13
-11 4 -40 22 -64 40 -24 18 -48 30 -53 27 -4 -4 -5 -3 -1 2 4 5 -6 26 -22 46
-17 21 -30 40 -30 43 0 2 -8 22 -17 43 -23 55 -24 60 -25 144 -1 127 62 248
166 317 25 17 42 34 38 38 -4 5 -2 5 5 2 6 -4 24 -2 40 4 71 28 163 31 243 7z"/>
<path d="M2112 2161 c-100 -37 -183 -125 -217 -229 -23 -70 -17 -198 13 -264
83 -187 322 -266 504 -166 205 112 251 385 95 564 -20 22 -64 56 -99 74 -56
30 -73 34 -153 37 -71 3 -101 -1 -143 -16z m260 -29 c129 -56 217 -199 206
-336 -10 -119 -94 -238 -206 -289 -72 -33 -198 -31 -273 4 -149 70 -231 243
-189 395 18 64 81 155 130 189 97 67 228 81 332 37z"/>
<path d="M2174 2134 c-8 -3 -6 -17 7 -43 30 -62 43 -129 29 -145 -26 -32 -57
14 -80 116 -10 42 -16 55 -27 51 -8 -3 -10 -8 -5 -12 12 -8 37 -119 29 -127
-4 -4 -31 8 -62 27 l-55 33 28 31 c15 16 5 10 -21 -15 -44 -41 -65 -67 -32
-40 11 10 24 6 67 -18 30 -17 64 -42 78 -57 22 -24 23 -26 7 -42 -16 -16 -19
-16 -50 2 -17 10 -52 35 -78 56 -43 36 -46 37 -57 18 -16 -25 -15 -37 1 -16
11 15 17 12 62 -27 28 -24 47 -47 44 -50 -3 -3 -33 -9 -66 -12 -59 -6 -61 -6
-66 17 -4 21 -4 20 -6 -6 l-1 -30 88 3 c71 3 91 0 101 -12 11 -13 11 -19 0
-32 -10 -12 -30 -15 -101 -12 -101 3 -118 -6 -27 -16 33 -3 66 -9 72 -13 6 -4
-11 -25 -43 -54 -73 -64 -61 -70 15 -8 69 57 92 66 111 47 20 -20 -4 -51 -74
-95 -49 -31 -58 -34 -76 -23 -21 13 -21 13 -2 -8 l19 -22 36 22 c20 12 45 28
56 35 11 7 23 13 27 13 12 0 9 -42 -6 -93 -8 -26 -11 -49 -7 -52 5 -2 14 21
21 53 23 102 54 148 80 116 14 -16 1 -83 -30 -146 -10 -21 -15 -40 -11 -43 5
-2 19 24 32 58 14 34 31 62 38 62 14 0 63 -110 53 -119 -3 -3 0 -6 6 -6 17 0
15 7 -13 75 -13 33 -25 72 -25 86 0 29 20 52 36 41 13 -10 41 -77 55 -135 17
-69 22 -51 8 27 -13 68 -9 86 13 69 7 -5 34 -21 59 -36 41 -23 48 -25 59 -12
11 13 10 14 -4 9 -18 -7 -98 41 -136 81 -22 23 -22 27 -8 41 14 14 18 14 45 1
44 -23 118 -88 115 -101 -2 -7 1 -7 9 1 10 10 1 22 -39 58 -29 26 -52 50 -52
55 0 4 28 11 61 14 47 6 64 4 70 -6 6 -9 9 -7 9 7 0 19 -5 20 -64 15 -62 -5
-120 1 -134 14 -3 4 -1 15 4 24 9 14 27 17 103 17 84 0 91 1 91 20 0 16 -2 17
-9 6 -7 -11 -23 -12 -67 -7 -32 4 -60 9 -63 12 -4 3 18 28 48 56 42 38 51 52
42 61 -10 9 -12 9 -9 0 4 -14 -86 -91 -121 -105 -29 -10 -51 -4 -51 15 0 30
130 123 157 112 13 -4 14 -3 3 10 -11 13 -16 13 -34 2 -71 -45 -97 -58 -105
-53 -6 4 -3 32 8 71 10 35 16 67 13 70 -8 8 -24 6 -18 -3 6 -10 -18 -112 -34
-143 -16 -30 -29 -39 -47 -32 -20 8 -16 58 12 124 25 59 26 80 2 78 -9 0 -9
-2 0 -5 13 -6 -28 -116 -46 -122 -6 -2 -22 22 -36 54 -20 45 -23 59 -13 66 14
8 1 10 -18 2z"/>
<path d="M6213 2295 c-68 -19 -155 -63 -148 -75 3 -5 0 -7 -8 -4 -20 7 -133
-119 -162 -183 -34 -73 -44 -124 -45 -212 0 -143 50 -261 153 -358 47 -44 137
-103 137 -88 0 2 19 -5 42 -17 53 -28 195 -37 266 -18 146 40 268 137 328 261
73 150 71 288 -6 448 -33 67 -142 187 -160 176 -5 -3 -10 -1 -10 5 0 15 -100
59 -161 70 -71 14 -164 11 -226 -5z m237 -107 c83 -24 184 -109 225 -190 12
-21 23 -37 25 -34 8 7 14 -64 14 -159 0 -78 -4 -98 -28 -148 -91 -189 -312
-271 -503 -187 -25 11 -49 17 -54 14 -5 -3 -8 -2 -7 3 2 4 -18 28 -45 52 -99
92 -146 243 -113 369 55 215 275 342 486 280z"/>
<path d="M6213 2161 c-166 -62 -267 -235 -233 -403 6 -34 21 -80 32 -102 31
-60 101 -129 165 -162 53 -27 67 -29 163 -29 91 0 112 4 155 25 67 33 140 108
173 178 23 49 27 70 27 152 0 108 -18 160 -81 237 -33 40 -106 92 -136 97 -7
1 -20 6 -28 11 -8 5 -53 10 -100 12 -65 3 -97 -1 -137 -16z m257 -29 c70 -30
135 -94 172 -169 65 -132 36 -286 -74 -389 -74 -70 -125 -89 -233 -89 -73 0
-99 5 -136 23 -71 35 -122 84 -160 154 -32 59 -34 69 -34 158 0 84 3 101 27
146 50 96 111 147 211 180 56 18 169 11 227 -14z"/>
<path d="M6267 2134 c-3 -3 5 -31 18 -60 34 -77 40 -117 21 -133 -13 -11 -19
-11 -31 -1 -16 13 -55 129 -55 163 0 13 -4 17 -9 12 -6 -6 -3 -34 7 -72 9 -34
13 -65 9 -69 -3 -4 -33 9 -66 29 l-59 35 -19 -21 c-14 -17 -15 -19 -1 -9 14
11 22 11 45 -1 60 -32 113 -77 113 -97 0 -47 -51 -32 -132 39 -44 39 -47 41
-57 22 -14 -25 -14 -42 0 -18 9 16 14 14 55 -19 24 -20 44 -42 44 -49 0 -12
-51 -25 -102 -25 -16 0 -28 -3 -28 -7 0 -5 42 -8 92 -8 93 0 93 0 93 -25 0
-25 0 -25 -93 -25 -50 0 -92 -3 -92 -6 0 -3 30 -10 68 -15 37 -5 67 -13 66
-19 0 -5 -23 -29 -51 -52 -29 -22 -49 -44 -46 -47 3 -3 29 14 57 38 62 52 93
69 112 62 39 -15 -2 -69 -93 -121 -28 -16 -34 -17 -50 -4 -17 13 -17 13 0 -8
l19 -21 59 35 c33 20 62 33 66 29 6 -5 -12 -101 -24 -133 -3 -7 0 -13 6 -13 6
0 11 8 11 17 0 32 31 128 50 153 16 21 20 22 34 11 20 -17 13 -62 -20 -137
-13 -29 -20 -55 -17 -58 4 -3 18 22 32 56 14 34 31 63 37 65 10 3 54 -90 54
-115 0 -6 5 -12 10 -12 14 0 13 8 -15 75 -28 67 -32 120 -11 128 8 3 21 -2 29
-11 18 -21 46 -101 49 -142 1 -16 6 -30 10 -30 11 0 10 17 -7 80 -8 31 -11 58
-6 63 5 5 34 -7 66 -28 53 -34 59 -35 74 -20 15 15 15 16 -1 10 -20 -8 -92 32
-131 73 -27 29 -29 62 -3 62 19 0 103 -58 130 -91 25 -29 25 -29 37 -8 8 15 8
19 0 15 -12 -8 -100 62 -101 81 0 12 113 29 129 18 6 -3 11 0 11 7 0 10 -24
13 -97 13 -94 0 -98 1 -101 22 -4 29 22 36 122 31 42 -2 76 0 76 5 0 4 -15 7
-32 7 -59 0 -108 12 -108 26 0 8 3 14 8 14 4 1 26 18 49 39 39 35 41 40 28 57
-13 16 -14 16 -9 2 6 -19 -29 -55 -95 -95 -43 -28 -57 -29 -66 -5 -8 20 53 79
115 110 39 19 39 19 19 38 -15 14 -19 14 -14 2 7 -19 -91 -86 -105 -72 -11 11
14 114 30 124 8 5 5 9 -7 12 -15 4 -19 -1 -21 -21 -4 -48 -31 -127 -49 -144
-50 -44 -56 42 -11 133 20 40 22 50 10 55 -22 8 -39 6 -23 -4 11 -7 10 -18 -9
-65 -13 -31 -28 -56 -32 -56 -5 0 -20 25 -34 57 -20 44 -22 58 -12 64 10 7 9
9 -3 9 -9 0 -18 -3 -22 -6z"/>
<path d="M2790 2201 c-6 -13 -10 -154 -10 -390 0 -323 2 -372 16 -385 24 -24
499 -23 569 1 61 20 130 87 144 139 27 97 2 208 -56 254 l-25 19 25 33 c31 42
39 68 39 128 -1 92 -43 157 -127 196 -48 23 -58 24 -307 24 -244 0 -258 -1
-268 -19z m498 -145 c8 -8 17 -34 19 -59 5 -39 2 -49 -20 -71 -26 -26 -29 -26
-172 -26 l-145 0 0 88 0 87 152 -2 c115 -2 156 -6 166 -17z m6 -307 c33 -15
50 -59 43 -112 -10 -72 -24 -77 -208 -77 l-159 0 0 100 0 100 150 0 c89 0 159
-5 174 -11z"/>
<path d="M3640 2200 c-7 -13 -10 -143 -8 -395 3 -321 5 -377 18 -385 9 -6 146
-10 322 -10 294 0 308 1 318 19 14 27 13 104 -2 119 -9 9 -76 12 -240 12
l-228 0 0 90 0 90 198 0 c141 0 201 3 210 12 16 16 16 110 0 126 -9 9 -69 12
-210 12 l-198 0 0 90 0 90 228 0 c164 0 231 3 240 12 7 7 12 35 12 63 0 28 -5
56 -12 63 -9 9 -95 12 -325 12 -302 0 -313 -1 -323 -20z"/>
<path d="M4413 2209 c-17 -17 -19 -750 -3 -780 9 -16 22 -19 78 -19 40 0 73 5
80 12 8 8 12 56 12 151 l0 139 89 -4 c84 -3 92 -5 121 -33 17 -16 56 -74 87
-128 73 -128 85 -137 184 -137 74 0 79 1 79 21 0 30 -128 255 -167 294 l-33
32 67 34 c85 44 108 82 108 184 0 102 -42 176 -128 223 -28 15 -67 17 -297 20
-203 2 -268 0 -277 -9z m458 -156 c72 -28 86 -109 27 -158 -28 -24 -35 -25
-174 -25 l-144 0 0 93 c0 52 3 97 7 100 3 4 59 7 124 7 87 0 130 -4 160 -17z"/>
<path d="M5172 2208 c-15 -15 -16 -92 -2 -119 10 -17 22 -19 135 -19 l125 0 0
-313 c0 -364 -5 -347 96 -347 32 0 66 5 74 10 13 8 15 58 18 330 l3 320 124 0
c113 0 125 2 135 19 13 25 13 87 0 112 -10 18 -25 19 -353 19 -254 0 -346 -3
-355 -12z"/>
<path d="M7024 2076 c-3 -8 -4 -73 -2 -145 2 -106 6 -134 20 -147 15 -16 18
-15 37 17 28 46 30 196 3 249 -18 37 -48 51 -58 26z"/>
</g>
</svg>
